<svg xmlns="http://www.w3.org/2000/svg" xmlns:xlink="http://www.w3.org/1999/xlink" viewBox="0 0 716.4 175.8"><defs><style>.cls-1{fill:#4e8ddc;}.cls-2{fill:url(#linear-gradient);}</style><linearGradient id="linear-gradient" y1="85.79" x2="175.8" y2="85.79" gradientTransform="matrix(1, 0, 0, -1, 0, 173.69)" gradientUnits="userSpaceOnUse"><stop offset="0" stop-color="#7471cc"/><stop offset="1" stop-color="#43bee8"/></linearGradient></defs><title>Asset 3</title><g id="Layer_2" data-name="Layer 2"><g id="Layer_1-2" data-name="Layer 1"><g id="Layer_6" data-name="Layer 6"><path class="cls-1" d="M237.6,98.7a19.45,19.45,0,0,1,.8,2.2c.3-.8.6-1.5.9-2.2a20,20,0,0,1,1-2.1l20.1-36.4a3.26,3.26,0,0,1,1.1-1.2,6.53,6.53,0,0,1,1.7-.2h5.9v59.3h-7V72.7c0-.7.1-1.3.1-2l-20.3,37.1a3.37,3.37,0,0,1-2.9,1.9h-1.2a3.19,3.19,0,0,1-2.9-1.9L214.1,70.6c.1.7.1,1.4.2,2.1s.1,1.3.1,1.9v43.5h-7V58.8h5.9a7.18,7.18,0,0,1,1.7.2,1.88,1.88,0,0,1,1.1,1.2l20.5,36.5A12.44,12.44,0,0,1,237.6,98.7Z"/><path class="cls-1" d="M288.9,118h-8V58.7h8Z"/><path class="cls-1" d="M306.4,59a5.36,5.36,0,0,1,1.2,1.1l34.3,44.7c-.1-.7-.1-1.4-.2-2.1a13.35,13.35,0,0,1,0-2v-42h7V118h-4.1a3.81,3.81,0,0,1-1.6-.3,5.83,5.83,0,0,1-1.3-1.1L307.5,72a14.08,14.08,0,0,1,.1,2v44h-7V58.7h4.1A13.88,13.88,0,0,1,306.4,59Z"/><path class="cls-1" d="M410.4,88.4a33.41,33.41,0,0,1-2.1,12.1,25.74,25.74,0,0,1-6,9.3,26.21,26.21,0,0,1-9.2,6,32.7,32.7,0,0,1-11.9,2.1H359V58.6h22.2a32.32,32.32,0,0,1,11.9,2.1,25.33,25.33,0,0,1,9.2,6,27.56,27.56,0,0,1,6,9.4A35.31,35.31,0,0,1,410.4,88.4Zm-8.2,0a30.09,30.09,0,0,0-1.5-9.8,20.89,20.89,0,0,0-4.2-7.3,16.9,16.9,0,0,0-6.6-4.5,23.92,23.92,0,0,0-8.6-1.6H367.2v46.3h14.1a21.28,21.28,0,0,0,8.6-1.6,18,18,0,0,0,6.6-4.5,20.89,20.89,0,0,0,4.2-7.3A28.65,28.65,0,0,0,402.2,88.4Z"/><path class="cls-1" d="M447.3,93.7c.5,1.1,1,2.3,1.5,3.5.5-1.2,1-2.4,1.5-3.5s1.1-2.3,1.6-3.3l15.5-30.5c.3-.5.6-.9.8-1.2a2.07,2.07,0,0,1,1-.6,5,5,0,0,1,1.2-.2h12.3v60.2H470.4V83.4c0-1.7.1-3.5.2-5.5l-16,31a5.07,5.07,0,0,1-4.9,2.9h-1.9a5.66,5.66,0,0,1-2.9-.7,4.78,4.78,0,0,1-2-2.2l-16-31a28.25,28.25,0,0,1,.2,2.9,24.4,24.4,0,0,1,.1,2.6v34.7H414.9V57.9h12.3a3.73,3.73,0,0,1,1.2.2,3.33,3.33,0,0,1,1,.6,3.6,3.6,0,0,1,.8,1.2l15.5,30.6A31.82,31.82,0,0,1,447.3,93.7Z"/><path class="cls-1" d="M507,118H492.9V57.7H507Z"/><path class="cls-1" d="M526.1,57.9c.4.1.8.2,1.1.3a8.79,8.79,0,0,0,1,.6c.4.2.6.6,1,1.1l28.6,36.2c-.1-1.2-.2-2.3-.2-3.4s-.1-2.1-.1-3.1V57.7h12.3V118h-7.3a6.84,6.84,0,0,1-2.7-.5,5.83,5.83,0,0,1-2.2-1.8L529.2,79.8c.1,1,.2,2.1.2,3.1s.1,2,.1,2.8V118H517.2V57.7h7.4C525.2,57.8,525.7,57.8,526.1,57.9Z"/><path class="cls-1" d="M617.7,57.8V68.6H593V82.7h18.9V92.9H593v14.3h24.7V118H578.9V57.7h38.8Z"/><path class="cls-1" d="M638.7,95.7V118h-14V57.7h19.6A39.31,39.31,0,0,1,655.4,59a20.24,20.24,0,0,1,7.5,3.7,13.69,13.69,0,0,1,4.2,5.7,18.31,18.31,0,0,1,1.3,7.1,19.22,19.22,0,0,1-.8,5.5,17.67,17.67,0,0,1-2.3,4.8,15.63,15.63,0,0,1-3.8,3.9,20,20,0,0,1-5.2,2.9,14.52,14.52,0,0,1,2.6,1.7,10.33,10.33,0,0,1,2.1,2.5l12.8,21H661.1a5.41,5.41,0,0,1-5-2.6l-10-17.5a4.4,4.4,0,0,0-1.6-1.7,5.51,5.51,0,0,0-2.5-.5h-3.3Zm0-9.6h5.6a14.48,14.48,0,0,0,4.9-.7,10.77,10.77,0,0,0,3.3-2,7.32,7.32,0,0,0,1.9-3,11,11,0,0,0,.6-3.7,7.92,7.92,0,0,0-2.6-6.2c-1.7-1.5-4.4-2.2-8-2.2h-5.6V86.1Z"/><path class="cls-1" d="M712.3,70a3.92,3.92,0,0,1-1.3,1.5,3.2,3.2,0,0,1-1.8.5,4.14,4.14,0,0,1-2-.6c-.7-.4-1.6-.8-2.5-1.3a19.33,19.33,0,0,0-3.2-1.3,12.65,12.65,0,0,0-4.1-.6,9,9,0,0,0-5.9,1.7,5.55,5.55,0,0,0-1.9,4.5,4.07,4.07,0,0,0,1.2,3,11.42,11.42,0,0,0,3,2.1,35.36,35.36,0,0,0,4.3,1.6c1.6.5,3.3,1,4.9,1.6a42.48,42.48,0,0,1,4.9,2.1,16.23,16.23,0,0,1,4.3,3.1,12.7,12.7,0,0,1,3,4.5,17,17,0,0,1,1.2,6.4,22.05,22.05,0,0,1-1.4,7.8,19.33,19.33,0,0,1-4.2,6.3,20.29,20.29,0,0,1-6.8,4.3,26,26,0,0,1-9.2,1.6,27.6,27.6,0,0,1-5.7-.6,35.85,35.85,0,0,1-5.6-1.6,30.15,30.15,0,0,1-5.1-2.5,23.2,23.2,0,0,1-4.2-3.2l4.1-6.5a3,3,0,0,1,1.3-1.2,3.74,3.74,0,0,1,1.8-.5,4.9,4.9,0,0,1,2.5.8c.8.5,1.8,1.1,2.9,1.7a25.57,25.57,0,0,0,3.7,1.7,14.37,14.37,0,0,0,4.9.8,9.41,9.41,0,0,0,5.9-1.7c1.4-1.1,2.1-2.9,2.1-5.3a4.87,4.87,0,0,0-1.2-3.4,9.72,9.72,0,0,0-3-2.2,24.06,24.06,0,0,0-4.3-1.5c-1.6-.4-3.2-.9-4.9-1.5a29.65,29.65,0,0,1-4.9-2,16.23,16.23,0,0,1-4.3-3.1,13.06,13.06,0,0,1-3-4.8,18.47,18.47,0,0,1-1.2-7.1,16.63,16.63,0,0,1,1.4-6.6,15.15,15.15,0,0,1,4-5.7,21,21,0,0,1,6.5-4,24.24,24.24,0,0,1,8.8-1.5,32.72,32.72,0,0,1,5.4.4,26.17,26.17,0,0,1,5,1.3,29.44,29.44,0,0,1,4.4,2,20.72,20.72,0,0,1,3.7,2.7Z"/></g><g id="Layer_5" data-name="Layer 5"><path class="cls-2" d="M87.9,0a87.9,87.9,0,1,0,87.9,87.9A88,88,0,0,0,87.9,0Zm77.8,58.4a81.81,81.81,0,0,1,5.2,23.9l.1,1.9L149.6,64.3l15.8-6.7ZM149,31.6l1.3,1.4a85.24,85.24,0,0,1,12.9,19.6l.3.7-15.4,6.5ZM87.9,130.1,58,117.7,45.7,87.9,58.1,58,88,45.6,117.9,58l12.4,29.9-12.4,29.9Zm28.7-6.6L110,141.1l-17.1-7.8ZM83,133.3l-17.1,7.8-6.6-17.6ZM52.3,116.5l-17.6-6.6,7.8-17.1ZM34.7,65.9l17.6-6.6L42.5,83ZM59.3,52.3l6.6-17.6L83,42.5Zm33.6-9.8L110,34.7l6.6,17.6Zm40.5,50.3,7.8,17.1-17.6,6.6Zm-.1-9.8-9.8-23.7,17.6,6.6ZM122.2,53.6l-7.9-21.2,29.9-1.1-1,30.1Zm.3-41.3a85.42,85.42,0,0,1,20.1,13l1.4,1.2-28.7,1,6.5-15.6ZM93.2,4.9a82.19,82.19,0,0,1,23.5,5l.7.3-6.5,15.6L91.3,4.8Zm15.2,25.2L87.9,39.4,67.3,30.1,87.7,8.2ZM59,10A81.53,81.53,0,0,1,82.4,5l1.9-.1-19.5,21L58.3,10.3ZM33,25.6A83.8,83.8,0,0,1,53.1,12.5l.7-.3,6.5,15.6-28.7-.9Zm28.5,7-7.9,21L32.4,61.5,31.3,31.6ZM12.4,53.1A83.85,83.85,0,0,1,25.3,33.2l1.2-1.4,1,28.4L12,53.8ZM5,82.7A83.53,83.53,0,0,1,10,59l.3-.7L26,64.8,4.9,84.6Zm5.1,34.4A79.69,79.69,0,0,1,5,93.4l-.1-1.9L26,111.2l-15.6,6.6Zm16.7,27.1-1.3-1.4a83.65,83.65,0,0,1-13-19.8l-.3-.7,15.5-6.5ZM8.2,88.1l22-20.6,9.3,20.4-9.3,20.6Zm24.4,26.2,21,7.9,7.9,21.2-29.9,1.1Zm20.5,49.1a80.3,80.3,0,0,1-19.8-12.9l-1.4-1.2,28.4-1-6.4,15.5Zm29.6,7.5a83.53,83.53,0,0,1-23.7-5l-.7-.3,6.5-15.7,19.8,21.2ZM67.5,145.7,88,136.4l20.6,9.3L88.2,167.6Zm49.3,20.2a81.58,81.58,0,0,1-23.3,5l-1.9.1,19.5-20.9,6.5,15.6Zm26.1-15.7a83.71,83.71,0,0,1-20.2,13.2l-.7.3L115.5,148l28.8.9Zm-28.6-7,7.9-21,21.1-7.9,1.1,29.9Zm22.1-55.3,9.3-20.6,21.9,20.4-22,20.6Zm27.1,34.7a80,80,0,0,1-13,20l-1.2,1.4-1-28.6,15.6,6.5Zm2.4-5.9-.3.7L150,110.9l21-19.7-.1,1.9A82.86,82.86,0,0,1,165.9,116.7Z"/></g></g></g></svg>