<svg width="278" height="51" viewBox="0 0 278 51" fill="none" xmlns="http://www.w3.org/2000/svg">
<g opacity="0.2">
<path d="M25.5 0C20.4565 0 15.5264 1.49555 11.3329 4.29752C7.13946 7.0995 3.87106 11.0821 1.94102 15.7416C0.0109876 20.4011 -0.493997 25.5283 0.489926 30.4748C1.47385 35.4213 3.90249 39.965 7.46873 43.5312C11.035 47.0975 15.5786 49.5261 20.5252 50.51C25.4717 51.4939 30.5989 50.989 35.2584 49.0589C39.9179 47.1289 43.9005 43.8605 46.7024 39.667C49.5044 35.4736 51 30.5434 51 25.5C50.9923 18.7393 48.3032 12.2578 43.5227 7.47726C38.7422 2.69674 32.2606 0.00767822 25.5 0V0ZM48.0699 16.942C48.9174 19.1645 49.4259 21.5017 49.5785 23.8754L49.6075 24.4266L43.3993 18.6536L47.9829 16.7099L48.0699 16.942ZM43.2252 9.16723L43.6023 9.57338C45.1059 11.2871 46.3653 13.2006 47.3447 15.2594L47.4317 15.4625L42.9641 17.3481L43.2252 9.16723ZM25.5 37.7423L16.8259 34.145L13.2576 25.5L16.8549 16.8259L25.529 13.2287L34.203 16.8259L37.8003 25.5L34.203 34.1741L25.5 37.7423ZM33.8259 35.8276L31.9112 40.9334L26.9505 38.6706L33.8259 35.8276ZM24.0785 38.6706L19.1177 40.9334L17.203 35.8276L24.0785 38.6706ZM15.1723 33.7969L10.0665 31.8823L12.3293 26.9215L15.1723 33.7969ZM10.0665 19.1177L15.1723 17.2031L12.3293 24.0785L10.0665 19.1177ZM17.203 15.1724L19.1177 10.0666L24.0785 12.3294L17.203 15.1724ZM26.9505 12.3294L31.9112 10.0666L33.8259 15.1724L26.9505 12.3294ZM38.6996 26.9215L40.9624 31.8823L35.8566 33.7969L38.6996 26.9215ZM38.6706 24.0785L35.8276 17.2031L40.9334 19.1177L38.6706 24.0785ZM35.4505 15.5495L33.1587 9.39932L41.8327 9.0802L41.5426 17.8123L35.4505 15.5495ZM35.5375 3.56826C37.6486 4.54544 39.6115 5.81502 41.3686 7.33959L41.7747 7.68771L33.4488 7.97781L35.3344 3.45222L35.5375 3.56826ZM27.0375 1.4215C29.3687 1.56845 31.6658 2.05718 33.8549 2.87201L34.058 2.95904L32.1723 7.48464L26.4863 1.39249L27.0375 1.4215ZM31.4471 8.73208L25.5 11.43L19.5238 8.73208L25.4419 2.37884L31.4471 8.73208ZM17.116 2.90102C19.2951 2.08629 21.5826 1.59752 23.9044 1.45051L24.4556 1.4215L18.7986 7.51365L16.9129 2.98805L17.116 2.90102ZM9.57333 7.42662C11.3247 5.88672 13.2885 4.60682 15.4044 3.62628L15.6075 3.53925L17.4931 8.06485L9.16719 7.80375L9.57333 7.42662ZM17.8412 9.45734L15.5494 15.5495L9.39927 17.8413L9.08016 9.16723L17.8412 9.45734ZM3.59722 15.4044C4.56485 13.3125 5.82489 11.3687 7.33954 9.6314L7.68766 9.22525L7.97777 17.4642L3.48118 15.6075L3.59722 15.4044ZM1.45046 23.9915C1.59735 21.6414 2.08599 19.3252 2.90097 17.116L2.98801 16.913L7.54261 18.7986L1.42145 24.5427L1.45046 23.9915ZM2.92998 33.971C2.08906 31.768 1.59011 29.4494 1.45046 27.0956L1.42145 26.5444L7.54261 32.2594L3.01702 34.1741L2.92998 33.971ZM7.7747 41.8328L7.39756 41.4266C5.87436 39.7005 4.60453 37.7665 3.62623 35.6826L3.5392 35.4795L8.03579 33.5939L7.7747 41.8328ZM2.37879 25.558L8.76104 19.5819L11.459 25.5L8.76104 31.4761L2.37879 25.558ZM9.45729 33.1587L15.5494 35.4505L17.8412 41.6007L9.16719 41.9198L9.45729 33.1587ZM15.4044 47.4027C13.3156 46.4454 11.38 45.1843 9.66036 43.6604L9.25422 43.3123L17.4931 43.0222L15.6365 47.5188L15.4044 47.4027ZM23.9914 49.5785C21.6413 49.4316 19.3252 48.943 17.116 48.128L16.9129 48.041L18.7986 43.4863L24.5426 49.6365L23.9914 49.5785ZM19.5819 42.2679L25.529 39.57L31.5051 42.2679L25.587 48.6212L19.5819 42.2679ZM33.8839 48.128C31.7139 48.9397 29.4365 49.4285 27.1245 49.5785L26.5733 49.6075L32.2303 43.5444L34.116 48.07L33.8839 48.128ZM41.4556 43.5734C39.6974 45.1261 37.7236 46.416 35.5955 47.4027L35.3924 47.4898L33.5068 42.9351L41.8617 43.1962L41.4556 43.5734ZM33.1587 41.5427L35.4505 35.4505L41.5716 33.1587L41.8907 41.8328L33.1587 41.5427ZM39.5699 25.5L42.2679 19.5239L48.6211 25.442L42.2389 31.4181L39.5699 25.5ZM47.4317 35.5665C46.4716 37.6782 45.2004 39.6339 43.6604 41.3686L43.3122 41.7747L43.0221 33.4778L47.5477 35.3635L47.4317 35.5665ZM48.1279 33.8549L48.0409 34.058L43.5153 32.1724L49.6075 26.4573L49.5785 27.0085C49.4315 29.3492 48.9428 31.6558 48.1279 33.8549V33.8549Z" fill="url(#paint0_linear)"/>
</g>
<path d="M16.8711 37H14.709V11.4062H16.8711V37ZM33.3945 26.3477H25.959V37H23.7793V11.4062H32.0938C34.8242 11.4062 36.957 12.0684 38.4922 13.3926C40.0273 14.7168 40.7949 16.5684 40.7949 18.9473C40.7949 20.5879 40.3145 22.0352 39.3535 23.2891C38.3926 24.543 37.1035 25.4102 35.4863 25.8906L41.8848 36.7715V37H39.582L33.3945 26.3477ZM25.959 24.502H32.5859C34.4023 24.502 35.8613 23.9863 36.9629 22.9551C38.0645 21.9238 38.6152 20.5879 38.6152 18.9473C38.6152 17.1426 38.041 15.7422 36.8926 14.7461C35.7441 13.75 34.1328 13.252 32.0586 13.252H25.959V24.502ZM74.5801 28.4746C74.3809 31.2285 73.3613 33.3965 71.5215 34.9785C69.6934 36.5605 67.2793 37.3516 64.2793 37.3516C60.998 37.3516 58.4141 36.25 56.5273 34.0469C54.6523 31.832 53.7148 28.7969 53.7148 24.9414V23.377C53.7148 20.916 54.1484 18.748 55.0156 16.873C55.8828 14.998 57.1191 13.5625 58.7246 12.5664C60.3418 11.5586 62.2168 11.0547 64.3496 11.0547C67.3027 11.0547 69.6816 11.8457 71.4863 13.4277C73.291 15.0098 74.334 17.2305 74.6152 20.0898H69.3418C69.2129 18.4375 68.75 17.2422 67.9531 16.5039C67.168 15.7539 65.9668 15.3789 64.3496 15.3789C62.5918 15.3789 61.2734 16.0117 60.3945 17.2773C59.5273 18.5312 59.082 20.4824 59.0586 23.1309V25.0645C59.0586 27.8301 59.4746 29.8516 60.3066 31.1289C61.1504 32.4062 62.4746 33.0449 64.2793 33.0449C65.9082 33.0449 67.1211 32.6758 67.918 31.9375C68.7266 31.1875 69.1895 30.0332 69.3066 28.4746H74.5801ZM92.4922 31.7266H83.2461L81.4883 37H75.8809L85.4082 11.4062H90.2949L99.875 37H94.2676L92.4922 31.7266ZM84.6699 27.4551H91.0684L87.8516 17.875L84.6699 27.4551ZM107.539 32.7637H118.736V37H102.266V11.4062H107.539V32.7637ZM140.744 28.4746C140.545 31.2285 139.525 33.3965 137.686 34.9785C135.857 36.5605 133.443 37.3516 130.443 37.3516C127.162 37.3516 124.578 36.25 122.691 34.0469C120.816 31.832 119.879 28.7969 119.879 24.9414V23.377C119.879 20.916 120.312 18.748 121.18 16.873C122.047 14.998 123.283 13.5625 124.889 12.5664C126.506 11.5586 128.381 11.0547 130.514 11.0547C133.467 11.0547 135.846 11.8457 137.65 13.4277C139.455 15.0098 140.498 17.2305 140.779 20.0898H135.506C135.377 18.4375 134.914 17.2422 134.117 16.5039C133.332 15.7539 132.131 15.3789 130.514 15.3789C128.756 15.3789 127.438 16.0117 126.559 17.2773C125.691 18.5312 125.246 20.4824 125.223 23.1309V25.0645C125.223 27.8301 125.639 29.8516 126.471 31.1289C127.314 32.4062 128.639 33.0449 130.443 33.0449C132.072 33.0449 133.285 32.6758 134.082 31.9375C134.891 31.1875 135.354 30.0332 135.471 28.4746H140.744ZM163.578 11.4062V28.2637C163.578 31.0645 162.699 33.2793 160.941 34.9082C159.195 36.5371 156.805 37.3516 153.77 37.3516C150.781 37.3516 148.408 36.5605 146.65 34.9785C144.893 33.3965 143.996 31.2227 143.961 28.457V11.4062H149.234V28.2988C149.234 29.9746 149.633 31.1992 150.43 31.9727C151.238 32.7344 152.352 33.1152 153.77 33.1152C156.734 33.1152 158.24 31.5566 158.287 28.4395V11.4062H163.578ZM173.176 32.7637H184.373V37H167.902V11.4062H173.176V32.7637ZM202.215 31.7266H192.969L191.211 37H185.604L195.131 11.4062H200.018L209.598 37H203.99L202.215 31.7266ZM194.393 27.4551H200.791L197.574 17.875L194.393 27.4551ZM229.145 15.6777H221.305V37H216.031V15.6777H208.297V11.4062H229.145V15.6777ZM252.699 24.7832C252.699 27.3027 252.254 29.5117 251.363 31.4102C250.473 33.3086 249.195 34.7734 247.531 35.8047C245.879 36.8359 243.98 37.3516 241.836 37.3516C239.715 37.3516 237.822 36.8418 236.158 35.8223C234.494 34.8027 233.205 33.3496 232.291 31.4629C231.377 29.5645 230.914 27.3848 230.902 24.9238V23.6582C230.902 21.1387 231.354 18.9238 232.256 17.0137C233.17 15.0918 234.453 13.6211 236.105 12.6016C237.77 11.5703 239.668 11.0547 241.801 11.0547C243.934 11.0547 245.826 11.5703 247.479 12.6016C249.143 13.6211 250.426 15.0918 251.328 17.0137C252.242 18.9238 252.699 21.1328 252.699 23.6406V24.7832ZM247.355 23.623C247.355 20.9395 246.875 18.9004 245.914 17.5059C244.953 16.1113 243.582 15.4141 241.801 15.4141C240.031 15.4141 238.666 16.1055 237.705 17.4883C236.744 18.8594 236.258 20.875 236.246 23.5352V24.7832C236.246 27.3965 236.727 29.4238 237.688 30.8652C238.648 32.3066 240.031 33.0273 241.836 33.0273C243.605 33.0273 244.965 32.3359 245.914 30.9531C246.863 29.5586 247.344 27.5312 247.355 24.8711V23.623ZM266.006 27.6309H261.805V37H256.531V11.4062H266.041C269.064 11.4062 271.396 12.0801 273.037 13.4277C274.678 14.7754 275.498 16.6797 275.498 19.1406C275.498 20.8867 275.117 22.3457 274.355 23.5176C273.605 24.6777 272.463 25.6035 270.928 26.2949L276.465 36.7539V37H270.805L266.006 27.6309ZM261.805 23.3594H266.059C267.383 23.3594 268.408 23.0254 269.135 22.3574C269.861 21.6777 270.225 20.7461 270.225 19.5625C270.225 18.3555 269.879 17.4062 269.188 16.7148C268.508 16.0234 267.459 15.6777 266.041 15.6777H261.805V23.3594Z" fill="#4E8DDC"/>
<defs>
<linearGradient id="paint0_linear" x1="-4.95636e-05" y1="25.5" x2="51" y2="25.5" gradientUnits="userSpaceOnUse">
<stop stop-color="#4945CA"/>
<stop offset="1" stop-color="#4EE8F2"/>
</linearGradient>
</defs>
</svg>
