<svg width="201" height="201" viewBox="0 0 201 201" fill="none" xmlns="http://www.w3.org/2000/svg">
<g opacity="0.1">
<path d="M0 100.348C0 120.195 5.88531 139.596 16.9117 156.099C27.9381 172.601 43.6103 185.463 61.9465 193.058C80.2828 200.653 100.459 202.64 119.925 198.768C139.391 194.896 157.271 185.339 171.305 171.305C185.339 157.271 194.896 139.391 198.768 119.925C202.64 100.459 200.653 80.2828 193.058 61.9466C185.463 43.6104 172.601 27.9381 156.099 16.9118C139.596 5.88537 120.195 4.94473e-05 100.348 4.94473e-05C73.7434 0.0302649 48.237 10.6123 29.4246 29.4247C10.6123 48.2371 0.0302155 73.7434 0 100.348H0ZM66.6704 11.5304C75.4164 8.19551 84.6141 6.19435 93.955 5.59398L96.1241 5.47981L73.4059 29.9104L65.7571 11.8729L66.6704 11.5304ZM36.0751 30.5954L37.6733 29.1113C44.4174 23.1943 51.9473 18.2384 60.049 14.3844L60.8482 14.0419L68.2687 31.6228L36.0751 30.5954ZM148.524 100.348L134.368 134.482L100.348 148.524L66.2138 134.368L52.0577 100.234L66.2138 66.0996L100.348 51.9436L134.482 66.0996L148.524 100.348ZM140.99 67.5838L161.082 75.1184L152.177 94.6401L140.99 67.5838ZM152.177 105.942L161.082 125.464L140.99 132.998L152.177 105.942ZM132.998 140.99L125.464 161.082L105.942 152.178L132.998 140.99ZM75.2325 161.082L67.6979 140.99L94.7542 152.178L75.2325 161.082ZM59.7065 132.998L39.6141 125.464L48.5187 105.942L59.7065 132.998ZM48.5187 94.6401L39.6141 75.1184L59.7065 67.5838L48.5187 94.6401ZM105.942 48.4046L125.464 39.5L132.998 59.5924L105.942 48.4046ZM94.7542 48.5187L67.6979 59.7066L75.2325 39.6141L94.7542 48.5187ZM61.1906 61.1907L36.9884 70.2095L35.7326 36.0751L70.0953 37.2167L61.1906 61.1907ZM14.0419 60.8482C17.8873 52.5407 22.8834 44.816 28.8829 37.9017L30.2528 36.3035L31.3945 69.0678L13.5852 61.6473L14.0419 60.8482ZM5.59392 94.2976C6.17221 85.1236 8.09545 76.0844 11.302 67.4696L11.6445 66.6705L29.4537 74.091L5.47976 96.4666L5.59392 94.2976ZM34.3627 76.945L44.9797 100.348L34.3627 123.865L9.36126 100.576L34.3627 76.945ZM11.4162 133.341C8.21001 124.765 6.2866 115.764 5.70808 106.627L5.59392 104.458L29.5679 126.719L11.7587 134.14L11.4162 133.341ZM29.2254 163.023C23.1655 156.131 18.1289 148.403 14.2702 140.076L13.9277 139.277L31.7369 131.857L30.7095 164.621L29.2254 163.023ZM37.2167 130.487L61.1906 139.506L70.2094 163.708L36.0751 164.964L37.2167 130.487ZM60.6198 186.54C52.3877 182.732 44.7384 177.774 37.9017 171.813L36.3034 170.443L68.7253 169.302L61.419 186.997L60.6198 186.54ZM94.4117 194.988C85.1635 194.41 76.0489 192.487 67.3554 189.28L66.5562 188.938L73.9768 171.014L96.5808 195.102L94.4117 194.988ZM133.683 189.166C125.014 192.475 115.89 194.439 106.627 194.988L104.458 195.102L126.948 171.014L134.482 188.823L133.683 189.166ZM164.621 170.101L163.023 171.585C156.23 177.579 148.619 182.576 140.419 186.426L139.62 186.768L132.199 169.073L164.621 170.101ZM100.576 191.335L77.0591 166.219L100.348 155.602L123.865 166.219L100.576 191.335ZM130.487 163.48L139.506 139.506L163.708 130.487L164.964 164.621L130.487 163.48ZM186.54 140.076C182.773 148.296 177.81 155.913 171.813 162.68L170.443 164.279L169.302 131.857L186.997 139.163L186.54 140.076ZM195.102 106.285C194.524 115.533 192.601 124.647 189.394 133.341L189.052 134.14L171.128 126.719L195.331 104.115L195.102 106.285ZM166.334 123.637L155.716 100.234L166.334 76.7167L191.335 100.006L166.334 123.637ZM189.394 67.3554C192.589 75.8948 194.512 84.8569 195.102 93.9551L195.216 96.1242L171.357 73.8626L189.166 66.4421L189.394 67.3554ZM171.471 37.5592C177.581 44.478 182.657 52.2456 186.54 60.6199L186.883 61.419L168.959 68.8395L169.987 35.961L171.471 37.5592ZM163.479 70.2095L139.506 61.1907L130.487 37.1026L164.621 35.8468L163.479 70.2095ZM100.348 44.9797L76.8308 34.3627L100.12 9.3613L123.637 34.4769L100.348 44.9797ZM139.962 14.0419C148.272 17.8201 155.968 22.8227 162.795 28.8829L164.393 30.2529L131.743 31.3945L139.163 13.5853L139.962 14.0419ZM133.227 11.3021L134.026 11.6445L126.605 29.4538L104.115 5.47981L106.285 5.59398C115.496 6.17216 124.572 8.09523 133.227 11.3021V11.3021Z" fill="url(#paint0_linear)"/>
</g>
<defs>
<linearGradient id="paint0_linear" x1="100.348" y1="200.696" x2="100.348" y2="4.84831e-05" gradientUnits="userSpaceOnUse">
<stop stop-color="#4945CA"/>
<stop offset="1" stop-color="#4EE8F2"/>
</linearGradient>
</defs>
</svg>
